<svg width="20" height="19" viewBox="0 0 20 19" fill="none" xmlns="http://www.w3.org/2000/svg">
<path d="M9.98308 17L9.44902 17.8454C9.7745 18.051 10.1891 18.0516 10.5151 17.8467L9.98308 17ZM9.98308 17C10.5151 17.8467 10.5153 17.8466 10.5155 17.8465L10.516 17.8462L10.5176 17.8452L10.5224 17.8421L10.5392 17.8315L10.5998 17.7926C10.6519 17.7589 10.727 17.7099 10.822 17.6466C11.0121 17.5199 11.2826 17.3357 11.6102 17.1014C12.2641 16.6337 13.1508 15.963 14.0805 15.1506C15.8937 13.5664 18.0498 11.2923 18.7653 8.83349C19.5234 6.22815 18.3736 3.73269 16.3479 2.61041C14.479 1.57495 12.0767 1.79819 9.98559 3.70173C7.90695 1.79803 5.51084 1.57537 3.64576 2.61194C1.62524 3.73488 0.476503 6.2302 1.2352 8.83476C1.95079 11.2913 4.0965 13.5647 5.9014 15.1492C6.82662 15.9615 7.7089 16.6323 8.35952 17.1C8.68537 17.3343 8.9545 17.5186 9.14361 17.6452C9.23819 17.7086 9.31286 17.7576 9.36471 17.7912L9.42504 17.8302L9.44171 17.8408L9.44655 17.8439L9.44808 17.8449L9.44863 17.8452C9.44884 17.8453 9.44902 17.8454 9.98308 17Z" stroke="#FF5555" stroke-width="2" stroke-linecap="round" stroke-linejoin="round"/>
<path d="M10 8V12M8 10H12" stroke="#FF5555" stroke-width="2" stroke-linecap="round" stroke-linejoin="round"/>
</svg>
